<?xml version="1.0" encoding="UTF-8"?>
<svg id="_레이어_1" data-name="레이어_1" xmlns="http://www.w3.org/2000/svg" version="1.1" viewBox="0 0 512 512">
  <!-- Generator: Adobe Illustrator 30.1.0, SVG Export Plug-In . SVG Version: 2.1.1 Build 136)  -->
  <defs>
    <style>
      .st0 {
        fill: #00dc82;
      }
    </style>
  </defs>
  <path class="st0" d="M282.5,393.1h156.9c5,0,9.8-1.8,14.1-4.2,4.3-2.5,8.8-5.6,11.3-9.9,2.5-4.3,4.2-9.2,4.2-14.1,0-5-1.7-9.8-4.2-14.1l-106-182.3c-2.5-4.3-5.6-7.4-9.9-9.9-4.3-2.5-10.5-4.2-15.5-4.2s-9.8,1.8-14.1,4.2c-4.3,2.5-7.4,5.6-9.9,9.9l-26.9,46.6-53.7-90.5c-2.5-4.3-5.6-8.8-9.9-11.3-4.3-2.5-9.1-2.8-14.1-2.8s-9.8.3-14.1,2.8c-4.3,2.5-8.8,7-11.3,11.3L47.9,350.7c-2.5,4.3-2.8,9.2-2.8,14.1,0,5,.3,9.8,2.8,14.1,2.5,4.3,7,7.4,11.3,9.9,4.3,2.5,9.1,4.2,14.1,4.2h98.9c39.2,0,67.7-17.6,87.6-50.9l48.1-83.4,25.4-43.8,77.7,132.9h-103.2l-25.4,45.2ZM170.9,347.9h-69.3l103.2-178.1,52.3,89-34.6,60.4c-13.2,21.6-28.3,28.7-51.6,28.7Z"/>
  <path class="st0" d="M394.5,266.4h-103.2l-25.4,45.2h138.8"/>
</svg>